<svg width="434" height="434" viewBox="0 0 434 434" fill="none" xmlns="http://www.w3.org/2000/svg">
<path d="M419.309 86.7656L419.346 86.749L425.655 89.4443V338.252L217.493 434V433.891L8.33002 336.939V89.791L9.33588 89.3564L9.33099 89.3545L82.2275 57.877L82.2451 57.8838L149.279 28.9385L149.297 28.9453L216.332 0L419.309 86.7656ZM27.4775 324.765L206.191 407.549V200.346L27.4775 117.562V324.765ZM349.063 144.014V211.122L288.184 239.043V171.935L227.303 200.346V407.549L406.017 325.255V117.562L349.063 144.014ZM37.788 98.9482L216.992 181.241L275.418 154.3L94.2499 74.9463L37.788 98.9482ZM157.585 47.5146L338.263 125.399L396.197 98.9482L216.502 22.043L157.585 47.5146Z" fill="#131313"/>
<path d="M216.502 22.043L396.197 98.9481L338.262 125.4L157.585 47.5147L216.502 22.043Z" fill="#F2F2F2"/>
<path d="M94.2499 74.9459L275.418 154.3L216.993 181.242L37.7883 98.9482L94.2499 74.9459Z" fill="#F2F2F2"/>
<path d="M27.4779 117.562L206.191 200.345V407.548L27.4779 324.765V117.562Z" fill="#F2F2F2"/>
<path d="M288.183 239.043L349.064 211.122V144.013L406.016 117.562V325.255L227.303 407.548V200.345L288.183 171.934V239.043Z" fill="#F2F2F2"/>
<circle cx="344" cy="344" r="90" fill="#FF0000"/>
</svg>
