<svg width="512" height="512" viewBox="0 0 512 512" fill="none" xmlns="http://www.w3.org/2000/svg">
<path d="M458.309 125.465L458.346 125.448L464.655 128.15V377.531L256.493 473.5V473.391L47.33 376.216V128.498L48.3359 128.062L48.331 128.061L121.227 96.5098L121.246 96.5176L188.279 67.5049L188.298 67.5127L255.332 38.5L458.309 125.465ZM66.4775 364.014L245.191 446.987V239.307L66.4775 156.333V364.014ZM388.063 182.846V250.108L327.184 278.094V210.831L266.303 239.307V446.987L445.017 364.505V156.333L388.063 182.846ZM76.788 137.676L255.992 220.159L314.418 193.156L133.25 113.618L76.788 137.676ZM196.585 86.124L377.263 164.188L435.197 137.676L255.502 60.5938L196.585 86.124Z" fill="#232323"/>
<path d="M255.502 60.5937L435.197 137.676L377.262 164.188L196.585 86.1242L255.502 60.5937Z" fill="white" fill-opacity="0.9"/>
<path d="M133.25 113.619L314.418 193.156L255.993 220.159L76.7883 137.676L133.25 113.619Z" fill="white" fill-opacity="0.9"/>
<path d="M66.4779 156.333L245.191 239.307V446.988L66.4779 364.014V156.333Z" fill="white" fill-opacity="0.9"/>
<path d="M327.183 278.094L388.064 250.108V182.845L445.016 156.333V364.504L266.303 446.988V239.307L327.183 210.831V278.094Z" fill="white" fill-opacity="0.9"/>
<circle cx="417" cy="379" r="95" fill="#FF0000"/>
</svg>
